<svg width="24" height="24" viewBox="0 0 24 24" fill="none" xmlns="http://www.w3.org/2000/svg">
<path d="M21.397 10.1229H20.6251V10.0832H12.0001V13.9165H17.4161C16.626 16.148 14.5028 17.7498 12.0001 17.7498C8.82464 17.7498 6.25008 15.1753 6.25008 11.9998C6.25008 8.8244 8.82464 6.24984 12.0001 6.24984C13.4659 6.24984 14.7994 6.8028 15.8147 7.70602L18.5254 4.99538C16.8138 3.40023 14.5243 2.4165 12.0001 2.4165C6.70769 2.4165 2.41675 6.70744 2.41675 11.9998C2.41675 17.2922 6.70769 21.5832 12.0001 21.5832C17.2925 21.5832 21.5834 17.2922 21.5834 11.9998C21.5834 11.3573 21.5173 10.73 21.397 10.1229Z" fill="#FFC107"/>
<path d="M3.52173 7.53928L6.67033 9.84838C7.52229 7.73909 9.58558 6.24984 12.0001 6.24984C13.4659 6.24984 14.7994 6.8028 15.8147 7.70603L18.5254 4.99538C16.8138 3.40023 14.5244 2.4165 12.0001 2.4165C8.31915 2.4165 5.12694 4.49465 3.52173 7.53928Z" fill="#FF3D00"/>
<path d="M12.0001 21.5832C14.4754 21.5832 16.7247 20.6359 18.4252 19.0953L15.4592 16.5855C14.4649 17.3421 13.2495 17.7512 12.0001 17.7498C9.50744 17.7498 7.39096 16.1604 6.59363 13.9424L3.46851 16.3502C5.05455 19.4538 8.27551 21.5832 12.0001 21.5832Z" fill="#4CAF50"/>
<path d="M21.3969 10.1233H20.625V10.0835H12V13.9168H17.416C17.0381 14.9789 16.3572 15.9069 15.4577 16.5863L15.4591 16.5853L18.4251 19.0952C18.2153 19.2859 21.5833 16.7918 21.5833 12.0002C21.5833 11.3576 21.5172 10.7304 21.3969 10.1233Z" fill="#1976D2"/>
</svg>
