<svg width="24" height="24" viewBox="0 0 24 24" fill="none" xmlns="http://www.w3.org/2000/svg">
<path fill-rule="evenodd" clip-rule="evenodd" d="M14 2.99999V4.19999H4.2V19.8H19.8V9.99999H21V20C21 20.2652 20.8946 20.5196 20.7071 20.7071C20.5196 20.8946 20.2652 21 20 21H4C3.73478 21 3.48043 20.8946 3.29289 20.7071C3.10536 20.5196 3 20.2652 3 20V3.99999C3 3.73478 3.10536 3.48042 3.29289 3.29288C3.48043 3.10535 3.73478 2.99999 4 2.99999H14ZM19.86 2.74599C19.9537 2.65256 20.0807 2.6001 20.213 2.6001C20.3453 2.6001 20.4723 2.65256 20.566 2.74599L21.272 3.45099C21.3654 3.54471 21.4179 3.67165 21.4179 3.80399C21.4179 3.93633 21.3654 4.06327 21.272 4.15699L11.762 13.667L9.445 14.962C9.38785 14.9934 9.32201 15.0054 9.25746 14.996C9.19292 14.9867 9.13317 14.9565 9.08728 14.9102C9.04139 14.8639 9.01185 14.8038 9.00314 14.7392C8.99442 14.6745 9.00701 14.6088 9.039 14.552L10.351 12.256L19.86 2.74599Z" fill="#1976D2"/>
</svg>
